<?xml version="1.0" encoding="UTF-8"?>
<svg version="1.1" xmlns="http://www.w3.org/2000/svg" width="596" height="419">
<path d="M0 0 C1.31821999 -0.01007584 1.31821999 -0.01007584 2.66307068 -0.02035522 C5.55603755 -0.03928898 8.44877198 -0.04325665 11.34179688 -0.04541016 C13.35909113 -0.05183974 15.37638445 -0.05856822 17.39367676 -0.06558228 C21.6168026 -0.07754234 25.8398467 -0.08126425 30.06298828 -0.08007812 C35.47015879 -0.07987465 40.87680539 -0.10721186 46.28385162 -0.14162254 C50.44804283 -0.16387152 54.61210736 -0.16791633 58.77635193 -0.16685867 C60.76982942 -0.16921629 62.76331031 -0.17804887 64.75672913 -0.19352341 C67.5452237 -0.21314898 70.33258033 -0.20735957 73.12109375 -0.1953125 C73.94101303 -0.20655151 74.76093231 -0.21779053 75.60569763 -0.22937012 C80.85280925 -0.17185031 83.94021505 0.74065588 88.06054688 4.29052734 C89.35084913 8.1614341 89.22446117 11.83485251 89.23754883 15.87011719 C89.24412003 16.74700195 89.25069122 17.62388672 89.25746155 18.52734375 C89.27720075 21.43538502 89.28886343 24.34337442 89.29882812 27.25146484 C89.30290365 28.24748341 89.30697918 29.24350197 89.31117821 30.26970291 C89.33204945 35.5495915 89.34634217 40.82945407 89.35571289 46.109375 C89.36673193 51.53721182 89.4010765 56.96463354 89.44088459 62.39232445 C89.46717246 66.58595485 89.47541587 70.7794886 89.47899437 74.97319412 C89.48383515 76.97206017 89.49537661 78.97092264 89.51403236 80.96970749 C89.61168772 92.13360117 89.38297376 101.8280214 85.06054688 112.29052734 C84.7802211 112.97289963 84.49989532 113.65527191 84.21107483 114.35832214 C79.44257169 124.99187538 72.69791271 131.76059419 63.18554688 138.10302734 C62.63310303 138.4765332 62.08065918 138.85003906 61.51147461 139.23486328 C53.35419415 144.41505984 44.78668792 145.85442657 35.24804688 145.79052734 C33.80836548 145.78520996 33.80836548 145.78520996 32.33959961 145.77978516 C24.34706303 145.59383387 18.17196266 144.08256628 11.06054688 140.29052734 C9.90425781 139.6853125 9.90425781 139.6853125 8.72460938 139.06787109 C7.14006343 138.19417876 5.59295544 137.25273737 4.06054688 136.29052734 C4.06054688 135.63052734 4.06054688 134.97052734 4.06054688 134.29052734 C3.48175781 134.03400391 2.90296875 133.77748047 2.30664062 133.51318359 C-4.93788027 129.56964439 -9.52985463 122.57643744 -12.93945312 115.29052734 C-13.24753906 114.68982422 -13.555625 114.08912109 -13.87304688 113.47021484 C-19.15108935 101.80296306 -17.10212801 85.48770098 -17.10742188 72.91552734 C-17.11064443 71.09285457 -17.11400921 69.27018203 -17.11750793 67.44750977 C-17.12344477 63.65901082 -17.12535307 59.87053451 -17.12475586 56.08203125 C-17.12465355 51.23923893 -17.1384005 46.39659095 -17.15552807 41.55383301 C-17.16665593 37.80311416 -17.16867496 34.05243044 -17.16814613 30.30169678 C-17.1693214 28.51559951 -17.17371755 26.7295012 -17.1814785 24.94342041 C-17.19131179 22.45094595 -17.18838925 19.9587885 -17.18237305 17.46630859 C-17.18799255 16.7389299 -17.19361206 16.01155121 -17.19940186 15.26213074 C-17.17103411 10.62047885 -16.80613305 6.56526774 -14.93945312 2.29052734 C-10.29831984 -0.27635735 -5.18346644 -0.00573001 0 0 Z " fill="#0298A6" transform="translate(207.939453125,158.70947265625)"/>
<path d="M0 0 C1.6031852 -0.02772023 3.20637522 -0.05516368 4.80957031 -0.08230591 C5.90593307 -0.11897668 5.90593307 -0.11897668 7.02444458 -0.15638828 C12.01090199 -0.21861681 15.72963214 0.52920243 20.12988281 3.1166687 C23.40978154 7.67618466 23.560992 12.11950768 23.51806641 17.5619812 C23.52332336 18.3889299 23.52858032 19.2158786 23.53399658 20.06788635 C23.54716111 22.79267476 23.53846462 25.51687464 23.52832031 28.2416687 C23.5303436 30.1501171 23.53325717 32.05856474 23.53701782 33.9670105 C23.54143769 37.96830603 23.53502666 41.96940049 23.52099609 45.97067261 C23.50399731 51.06312297 23.51368818 56.15509566 23.53171349 61.24752808 C23.54264006 65.1924488 23.53906308 69.1372595 23.53133011 73.08218384 C23.52934767 74.95738788 23.53171749 76.83260236 23.53876877 78.70779419 C23.59545658 98.03765658 21.54920754 115.21069928 7.55566406 129.86276245 C-4.53955668 141.10099493 -16.94976207 145.6781594 -33.35839844 145.3588562 C-48.34951255 144.32498626 -61.13864088 137.42841488 -71.19824219 126.44088745 C-84.51570903 110.70762836 -84.03057451 91.0121468 -84.07324219 71.5697937 C-84.07606956 70.694981 -84.07889694 69.8201683 -84.08181 68.91884613 C-84.09670113 64.30070198 -84.10599751 59.68258834 -84.11035156 55.06442261 C-84.11586097 50.31113116 -84.1399694 45.55812255 -84.16832352 40.8049202 C-84.18697091 37.12968117 -84.19215634 33.45451055 -84.19368744 29.77922821 C-84.19670328 28.02661318 -84.20469549 26.27399905 -84.21787262 24.52143097 C-84.23499835 22.0715115 -84.23303867 19.62228841 -84.2265625 17.17233276 C-84.23577728 16.45737137 -84.24499207 15.74240997 -84.25448608 15.00578308 C-84.21273302 9.94312969 -83.18252362 6.53022208 -80.87011719 2.1166687 C-77.96126075 0.66224048 -75.38518307 0.95156577 -72.13574219 0.91134644 C-71.09602768 0.89649704 -71.09602768 0.89649704 -70.03530884 0.88134766 C-67.73028004 0.84963408 -65.42523168 0.82489736 -63.12011719 0.80026245 C-61.50699366 0.77966233 -59.89387516 0.75866512 -58.28076172 0.73728943 C-54.88446884 0.69325684 -51.4881582 0.65237002 -48.09179688 0.61398315 C-43.79116208 0.56537025 -39.49061129 0.51174461 -35.19006348 0.45600796 C-31.04176865 0.40241262 -26.89344582 0.3511637 -22.74511719 0.30026245 C-21.97671509 0.29070463 -21.20831299 0.28114681 -20.41662598 0.27129936 C-16.71460994 0.22605726 -13.01274552 0.18695707 -9.31054688 0.16033936 C-6.20581011 0.13684798 -3.10385795 0.07670727 0 0 Z " fill="#1F4267" transform="translate(392.8701171875,158.88333129882813)"/>
<path d="M0 0 C1.31821999 -0.01007584 1.31821999 -0.01007584 2.66307068 -0.02035522 C5.55603755 -0.03928898 8.44877198 -0.04325665 11.34179688 -0.04541016 C13.35909113 -0.05183974 15.37638445 -0.05856822 17.39367676 -0.06558228 C21.6168026 -0.07754234 25.8398467 -0.08126425 30.06298828 -0.08007812 C35.47015879 -0.07987465 40.87680539 -0.10721186 46.28385162 -0.14162254 C50.44804283 -0.16387152 54.61210736 -0.16791633 58.77635193 -0.16685867 C60.76982942 -0.16921629 62.76331031 -0.17804887 64.75672913 -0.19352341 C67.5452237 -0.21314898 70.33258033 -0.20735957 73.12109375 -0.1953125 C73.94101303 -0.20655151 74.76093231 -0.21779053 75.60569763 -0.22937012 C80.85280925 -0.17185031 83.94021505 0.74065588 88.06054688 4.29052734 C89.35084913 8.1614341 89.22446117 11.83485251 89.23754883 15.87011719 C89.24412003 16.74700195 89.25069122 17.62388672 89.25746155 18.52734375 C89.27720075 21.43538502 89.28886343 24.34337442 89.29882812 27.25146484 C89.30290365 28.24748341 89.30697918 29.24350197 89.31117821 30.26970291 C89.33204945 35.5495915 89.34634217 40.82945407 89.35571289 46.109375 C89.36673193 51.53721182 89.4010765 56.96463354 89.44088459 62.39232445 C89.46717246 66.58595485 89.47541587 70.7794886 89.47899437 74.97319412 C89.48383515 76.97206017 89.49537661 78.97092264 89.51403236 80.96970749 C89.61168772 92.13360117 89.38297376 101.8280214 85.06054688 112.29052734 C84.7802211 112.97289963 84.49989532 113.65527191 84.21107483 114.35832214 C79.44257169 124.99187538 72.69791271 131.76059419 63.18554688 138.10302734 C62.63310303 138.4765332 62.08065918 138.85003906 61.51147461 139.23486328 C53.35338472 144.41557386 44.78726459 145.85277621 35.24804688 145.79052734 C34.29188477 145.78843262 33.33572266 145.78633789 32.35058594 145.78417969 C24.08250097 145.60103476 15.1825831 144.41256357 9.06054688 138.29052734 C11.89610059 138.67371028 14.61843637 139.14844739 17.34570312 140.02490234 C29.14153605 143.79672222 45.38565724 144.42202154 56.77539062 138.99755859 C59.28895545 137.52721767 61.67364123 135.95724594 64.06054688 134.29052734 C65.12015625 133.61570312 65.12015625 133.61570312 66.20117188 132.92724609 C69.77643544 130.70013226 69.77643544 130.70013226 71.74414062 127.14208984 C71.90076172 126.22556641 71.90076172 126.22556641 72.06054688 125.29052734 C72.72054687 125.29052734 73.38054687 125.29052734 74.06054688 125.29052734 C74.72054687 122.98052734 75.38054687 120.67052734 76.06054688 118.29052734 C76.72054687 118.29052734 77.38054687 118.29052734 78.06054688 118.29052734 C78.06054688 117.63052734 78.06054688 116.97052734 78.06054688 116.29052734 C78.72054687 116.29052734 79.38054687 116.29052734 80.06054688 116.29052734 C80.18429687 115.36240234 80.30804688 114.43427734 80.43554688 113.47802734 C81.06054688 110.29052734 81.06054688 110.29052734 83.06054688 107.29052734 C83.76219329 105.30252917 84.43427559 103.30354218 85.06054688 101.29052734 C85.72054687 101.29052734 86.38054687 101.29052734 87.06054688 101.29052734 C86.56554687 53.77052734 86.56554687 53.77052734 86.06054688 5.29052734 C82.25162466 3.38606624 80.71356839 3.01229473 76.63867188 2.87646484 C75.61386719 2.83779297 74.5890625 2.79912109 73.53320312 2.75927734 C72.46972656 2.72833984 71.40625 2.69740234 70.31054688 2.66552734 C69.23160156 2.62685547 68.15265625 2.58818359 67.04101562 2.54833984 C64.38102913 2.45418103 61.72104747 2.36855347 59.06054688 2.29052734 C59.05912186 3.42312485 59.05769684 4.55572235 59.05622864 5.72264099 C59.03952814 16.41867033 58.99666114 27.11432071 58.92845631 37.81014919 C58.89422816 43.30846503 58.86908277 48.80650423 58.86499023 54.30493164 C58.86069841 59.61552308 58.83216181 64.92549092 58.7871151 70.23588753 C58.77416844 72.25753199 58.76982233 74.27925118 58.77439308 76.30093193 C58.7793192 79.14246057 58.75311781 81.98218061 58.7199707 84.82348633 C58.72859634 85.65139679 58.73722198 86.47930725 58.74610901 87.33230591 C58.6101842 94.32504621 56.13474765 99.78605771 51.520154 105.04651546 C50.06054688 106.29052734 50.06054688 106.29052734 48.06054688 106.29052734 C47.95742187 106.92990234 47.85429687 107.56927734 47.74804688 108.22802734 C47.52117187 108.90865234 47.29429687 109.58927734 47.06054688 110.29052734 C39.94286304 112.66308862 30.03712555 112.19990909 23.06054688 109.29052734 C20.68554687 106.85302734 20.68554687 106.85302734 19.06054688 104.29052734 C18.52429688 103.85740234 17.98804688 103.42427734 17.43554688 102.97802734 C13.39064378 98.01382809 13.75790878 90.21970973 13.74169922 84.12060547 C13.73165359 83.24161591 13.72160797 82.36262634 13.71125793 81.45700073 C13.68059718 78.57859902 13.6634387 75.70028959 13.64648438 72.82177734 C13.62775895 70.81538102 13.60818452 68.80899245 13.58779907 66.8026123 C13.53661716 61.54199818 13.49691701 56.28135857 13.45965576 51.02062988 C13.41952848 45.64438645 13.36847604 40.26824779 13.31835938 34.89208984 C13.22176518 24.3583022 13.13831849 13.82447079 13.06054688 3.29052734 C4.48054688 3.29052734 -4.09945312 3.29052734 -12.93945312 3.29052734 C-14.25918201 7.249714 -14.08689502 11.03720618 -14.0847168 15.16479492 C-14.08807541 16.07243088 -14.09143402 16.98006683 -14.09489441 17.91520691 C-14.10440896 20.92183799 -14.10634788 23.92841339 -14.10742188 26.93505859 C-14.11063447 29.02390059 -14.11399854 31.11274235 -14.11750793 33.20158386 C-14.12350072 37.58385744 -14.12534772 41.96611129 -14.12475586 46.34838867 C-14.12465431 51.96062513 -14.13829827 57.57273486 -14.15552807 63.18494129 C-14.16665416 67.50095703 -14.16867487 71.8169422 -14.16814613 76.13297081 C-14.16932565 78.20179366 -14.17374581 80.27061731 -14.1814785 82.33942604 C-14.19128909 85.23573258 -14.18839588 88.1317651 -14.18237305 91.02807617 C-14.18799255 91.8807608 -14.19361206 92.73344543 -14.19940186 93.61196899 C-14.16925977 99.32380366 -13.02654535 103.69358481 -10.81445312 108.97802734 C-9.93945312 111.29052734 -9.93945312 111.29052734 -9.93945312 114.29052734 C-9.27945313 114.29052734 -8.61945313 114.29052734 -7.93945312 114.29052734 C-5.30579326 119.21265865 -3.29469488 123.86956032 -1.93945312 129.29052734 C-7.36001345 125.38268153 -10.07793492 121.28851389 -12.93945312 115.29052734 C-13.40544922 114.38367188 -13.40544922 114.38367188 -13.88085938 113.45849609 C-19.14515278 101.78549768 -17.10212769 85.48846788 -17.10742188 72.91552734 C-17.11064443 71.09285457 -17.11400921 69.27018203 -17.11750793 67.44750977 C-17.12344477 63.65901082 -17.12535307 59.87053451 -17.12475586 56.08203125 C-17.12465355 51.23923893 -17.1384005 46.39659095 -17.15552807 41.55383301 C-17.16665593 37.80311416 -17.16867496 34.05243044 -17.16814613 30.30169678 C-17.1693214 28.51559951 -17.17371755 26.7295012 -17.1814785 24.94342041 C-17.19131179 22.45094595 -17.18838925 19.9587885 -17.18237305 17.46630859 C-17.18799255 16.7389299 -17.19361206 16.01155121 -17.19940186 15.26213074 C-17.17103411 10.62047885 -16.80613305 6.56526774 -14.93945312 2.29052734 C-10.29831984 -0.27635735 -5.18346644 -0.00573001 0 0 Z " fill="#79D2DB" transform="translate(207.939453125,158.70947265625)"/>
<path d="M0 0 C1.6031852 -0.02772023 3.20637522 -0.05516368 4.80957031 -0.08230591 C5.90593307 -0.11897668 5.90593307 -0.11897668 7.02444458 -0.15638828 C12.12389278 -0.22002688 15.56245711 0.83667441 20.12988281 3.1166687 C20.12988281 4.1066687 20.12988281 5.0966687 20.12988281 6.1166687 C19.5862207 5.6322229 19.04255859 5.1477771 18.48242188 4.64865112 C15.6218239 2.7858188 13.88116066 2.69516013 10.48925781 2.60494995 C9.41933594 2.56950073 8.34941406 2.53405151 7.24707031 2.49752808 C6.13589844 2.47496948 5.02472656 2.45241089 3.87988281 2.4291687 C2.75324219 2.39500854 1.62660156 2.36084839 0.46582031 2.32565308 C-2.3127262 2.24323856 -5.0909597 2.17406572 -7.87011719 2.1166687 C-7.87820404 3.32300964 -7.88629089 4.52935059 -7.8946228 5.77224731 C-7.97205341 17.13196016 -8.05978497 28.49155278 -8.15764427 39.85110855 C-8.20762443 45.69139473 -8.25395443 51.53166266 -8.29199219 57.37203979 C-8.3288231 63.00662212 -8.37517728 68.64105247 -8.42818069 74.27550507 C-8.44673628 76.42689096 -8.46183991 78.57830944 -8.47346115 80.72974396 C-8.49030351 83.73941159 -8.51933404 86.74873027 -8.55126953 89.75827026 C-8.55342972 90.6509108 -8.5555899 91.54355133 -8.55781555 92.46324158 C-8.56897903 93.28491318 -8.58014252 94.10658478 -8.59164429 94.95315552 C-8.59994042 96.02059179 -8.59994042 96.02059179 -8.60840416 97.10959244 C-9.03151478 100.35442629 -10.26238574 102.50893725 -12.55761719 104.8041687 C-15.60339704 106.53285456 -18.41414135 106.78436333 -21.87011719 107.1166687 C-21.87011719 107.7766687 -21.87011719 108.4366687 -21.87011719 109.1166687 C-28.71808987 111.39932626 -36.14449489 110.39654066 -42.87011719 108.1166687 C-46.59441221 105.66201971 -49.43429039 102.85740272 -51.87011719 99.1166687 C-52.89329999 93.7864084 -53.03689811 88.55645609 -53.07543945 83.15206909 C-53.08533905 82.28297913 -53.09523865 81.41388916 -53.10543823 80.51846313 C-53.13683785 77.66711074 -53.16172483 74.81574174 -53.18652344 71.96432495 C-53.2071116 69.97892339 -53.22810854 67.99352604 -53.24949646 66.00813293 C-53.30452487 60.79845596 -53.35401849 55.58874069 -53.40234375 50.3789978 C-53.45269971 45.05649432 -53.50831201 39.73404601 -53.56347656 34.41159058 C-53.67082271 23.97999716 -53.77231938 13.5483557 -53.87011719 3.1166687 C-57.61970936 2.97138765 -61.36857824 2.8826059 -65.12011719 2.8041687 C-66.18359375 2.76227417 -67.24707031 2.72037964 -68.34277344 2.67721558 C-69.36757813 2.66110229 -70.39238281 2.64498901 -71.44824219 2.62838745 C-72.39086914 2.60220337 -73.33349609 2.57601929 -74.3046875 2.54904175 C-77.0311874 2.94144759 -77.0311874 2.94144759 -79.17762756 5.08883667 C-81.46952694 9.18900146 -81.42539141 12.4270804 -81.37182617 17.05026245 C-81.37722916 17.94028961 -81.38263214 18.83031677 -81.38819885 19.74731445 C-81.40068503 22.68327295 -81.38419577 25.61825063 -81.36621094 28.5541687 C-81.36636593 30.59770764 -81.36785491 32.64124687 -81.37062073 34.68478394 C-81.37200467 38.96527112 -81.35944719 43.24542323 -81.33666992 47.52584839 C-81.3082855 53.01045119 -81.31102277 58.49449724 -81.32376003 63.97914124 C-81.33071764 68.19821928 -81.32292694 72.41716883 -81.31050301 76.63623047 C-81.30598932 78.65842191 -81.30565098 80.68062714 -81.30956841 82.70281982 C-81.31248139 85.52985879 -81.29596927 88.3561327 -81.27416992 91.18307495 C-81.27867157 92.01751129 -81.28317322 92.85194763 -81.28781128 93.71166992 C-81.22737401 98.43302814 -80.67526287 101.16044147 -77.87011719 105.1166687 C-77.22406893 107.53336772 -76.66438706 109.97443648 -76.18261719 112.4291687 C-75.80556641 114.31055542 -75.80556641 114.31055542 -75.42089844 116.22994995 C-75.23914063 117.18256714 -75.05738281 118.13518433 -74.87011719 119.1166687 C-82.549338 112.37820714 -83.07867444 99.70351227 -83.87011719 90.1166687 C-84.20349879 83.80904341 -84.17674523 77.4937418 -84.17089844 71.1791687 C-84.17479699 69.40133568 -84.17913399 67.62350356 -84.18388367 65.84567261 C-84.19128047 62.15130565 -84.19109952 58.45703443 -84.18579102 54.76266479 C-84.17995846 50.04084984 -84.19704966 45.31942234 -84.22013569 40.59767151 C-84.23488376 36.93958265 -84.23574406 33.28158744 -84.23262596 29.62347412 C-84.2331371 27.88203149 -84.2383357 26.14058333 -84.24843788 24.39916992 C-84.26082716 21.9688081 -84.2539998 19.53920657 -84.24243164 17.1088562 C-84.25007538 16.40017899 -84.25771912 15.69150177 -84.26559448 14.96134949 C-84.21279546 9.92186703 -83.16893519 6.51269742 -80.87011719 2.1166687 C-77.96126075 0.66224048 -75.38518307 0.95156577 -72.13574219 0.91134644 C-71.09602768 0.89649704 -71.09602768 0.89649704 -70.03530884 0.88134766 C-67.73028004 0.84963408 -65.42523168 0.82489736 -63.12011719 0.80026245 C-61.50699366 0.77966233 -59.89387516 0.75866512 -58.28076172 0.73728943 C-54.88446884 0.69325684 -51.4881582 0.65237002 -48.09179688 0.61398315 C-43.79116208 0.56537025 -39.49061129 0.51174461 -35.19006348 0.45600796 C-31.04176865 0.40241262 -26.89344582 0.3511637 -22.74511719 0.30026245 C-21.97671509 0.29070463 -21.20831299 0.28114681 -20.41662598 0.27129936 C-16.71460994 0.22605726 -13.01274552 0.18695707 -9.31054688 0.16033936 C-6.20581011 0.13684798 -3.10385795 0.07670727 0 0 Z " fill="#89A7C6" transform="translate(392.8701171875,158.88333129882813)"/>
<path d="M0 0 C6.75623262 7.0633341 10.73714562 14.96427459 10.75 24.875 C9.33410002 33.57267132 4.43933114 40.31555588 -2.25 45.875 C-9.83709097 50.52143916 -17.44457913 52.05076012 -26.25 50.875 C-34.12810459 48.82111798 -40.6815118 43.49380368 -45.25 36.875 C-48.56087568 29.82789307 -49.1150196 21.64893232 -47.10546875 14.13671875 C-44.17336694 6.38472355 -39.86685816 -0.36702174 -32.29296875 -4.0859375 C-20.89539287 -8.56282316 -10.02264089 -6.5532652 0 0 Z " fill="#0697A5" transform="translate(258.25,99.125)"/>
<path d="M0 0 C7.12579857 5.85925298 11.3953608 13.19038437 12.84765625 22.30859375 C13.39168681 31.01308264 9.04795592 38.88042042 3.4765625 45.37109375 C-2.56299156 50.81069211 -11.17576656 52.8067826 -19.1484375 52.43359375 C-26.72720872 51.30672106 -33.16897586 48.53337259 -37.8984375 42.37109375 C-38.77564482 41.05280479 -39.63257566 39.72061038 -40.4609375 38.37109375 C-41.0590625 37.46359375 -41.6571875 36.55609375 -42.2734375 35.62109375 C-45.3176983 29.85302065 -45.41988715 23.00962273 -43.77734375 16.77734375 C-40.30384511 7.43781213 -35.96942993 1.48169385 -26.828125 -2.71875 C-17.83552502 -6.17630082 -8.08770813 -5.35329252 0 0 Z " fill="#1F4266" transform="translate(383.4609375,97.62890625)"/>
<path d="M0 0 C20 0 20 0 26 2 C27.55879555 5.11759111 27.12952133 8.42514486 27.11352539 11.84619141 C27.11367142 12.65602982 27.11381744 13.46586823 27.1139679 14.30024719 C27.11326977 16.98404596 27.10548204 19.66777581 27.09765625 22.3515625 C27.09579171 24.20958417 27.09436798 26.06760633 27.09336853 27.92562866 C27.08954615 32.82142488 27.07971823 37.71719155 27.06866455 42.61297607 C27.05844444 47.60656331 27.05386962 52.60015532 27.04882812 57.59375 C27.03809573 67.39584634 27.02102264 77.19792071 27 87 C19 88 19 88 0 88 C0 58.96 0 29.92 0 0 Z " fill="#1B3F64" transform="translate(386,162)"/>
<path d="M0 0 C3.87474457 -0.11668214 7.74903396 -0.18741231 11.625 -0.25 C13.26662109 -0.30027344 13.26662109 -0.30027344 14.94140625 -0.3515625 C21.22724566 -0.42775449 25.32747541 -0.43331685 30 4 C31.24496228 7.73488683 31.15556197 11.21395594 31.16113281 15.10473633 C31.16858017 16.34450226 31.16858017 16.34450226 31.17617798 17.60931396 C31.19080651 20.3502282 31.19760656 23.09108434 31.203125 25.83203125 C31.20888062 27.74476624 31.2146383 29.65750123 31.22039795 31.57023621 C31.23091315 35.58938871 31.23675086 39.60852122 31.24023438 43.62768555 C31.24568749 48.74371619 31.26964451 53.85947642 31.29820633 58.97542286 C31.31697069 62.93318918 31.32204583 66.89089255 31.32357025 70.84869957 C31.32657175 72.73229114 31.33451418 74.61588228 31.34775543 76.4994297 C31.47413131 95.87667146 29.45875975 113.0527398 15.42578125 127.74609375 C3.32744456 138.9872214 -9.07138046 143.54831964 -25.48046875 143.24609375 C-35.51207872 142.54466042 -43.4720507 139.18727625 -52 134 C-50.34375 133.3203125 -50.34375 133.3203125 -48 133 C-45.34375 134.1796875 -45.34375 134.1796875 -42.5 135.875 C-36.87725898 139.19612451 -33.24321645 140.12850574 -26.703125 140.09765625 C-25.49785156 140.09443359 -24.29257812 140.09121094 -23.05078125 140.08789062 C-21.16939453 140.07532227 -21.16939453 140.07532227 -19.25 140.0625 C-17.34541016 140.05573242 -17.34541016 140.05573242 -15.40234375 140.04882812 C-12.26818164 140.03704556 -9.13411459 140.02059416 -6 140 C-6.43470991 138.22653412 -6.8825573 136.45628498 -7.3359375 134.6875 C-7.5839209 133.70136719 -7.8319043 132.71523438 -8.08740234 131.69921875 C-9.27456807 128.18790139 -11.19721039 126.36024388 -14 124 C-14.33 123.01 -14.66 122.02 -15 121 C-15.66 121 -16.32 121 -17 121 C-17.2475 120.236875 -17.495 119.47375 -17.75 118.6875 C-19.12176758 115.73819971 -20.3918717 114.82568981 -23 113 C-23 112.34 -23 111.68 -23 111 C-23.94875 110.71125 -24.8975 110.4225 -25.875 110.125 C-29 109 -29 109 -31 107 C-25.39 107 -19.78 107 -14 107 C-14 106.34 -14 105.68 -14 105 C-13.45730469 104.80664062 -12.91460937 104.61328125 -12.35546875 104.4140625 C-11.64003906 104.15367187 -10.92460937 103.89328125 -10.1875 103.625 C-9.47980469 103.36976563 -8.77210938 103.11453125 -8.04296875 102.8515625 C-5.75226641 101.9734231 -5.75226641 101.9734231 -3 100 C-1.6770843 96.0312529 -1.83060509 92.21721297 -1.81054688 88.078125 C-1.80225357 87.16567017 -1.79396027 86.25321533 -1.78541565 85.31311035 C-1.7680128 83.33078752 -1.75284662 81.34844409 -1.73963928 79.36608887 C-1.7186247 76.23130912 -1.69160117 73.09663284 -1.66296387 69.96191406 C-1.60325322 63.30798233 -1.55109443 56.65400274 -1.5 50 C-1.44080394 42.29092662 -1.3785463 34.58190449 -1.30812073 26.8729248 C-1.28150993 23.78020875 -1.26071767 20.68748763 -1.2401123 17.59472656 C-1.22351159 15.70377351 -1.20663995 13.81282281 -1.18945312 11.921875 C-1.18526871 11.05840454 -1.18108429 10.19493408 -1.17677307 9.30529785 C-1.14147138 5.95979681 -1.06511472 3.19534416 0 0 Z M1 1 C1 30.04 1 59.08 1 89 C14.63445087 89.59215862 14.63445087 89.59215862 28 88 C28.0694446 77.22999767 28.12278307 66.46004841 28.15543652 55.68986797 C28.17110684 50.68907971 28.19237004 45.68844438 28.22631836 40.68774414 C28.25886309 35.86372686 28.27684271 31.03985687 28.28463173 26.2157383 C28.29018404 24.37328586 28.30102608 22.53084167 28.31719017 20.68845177 C28.33889965 18.11202816 28.34196967 15.53621683 28.34057617 12.9597168 C28.351362 12.19439133 28.36214783 11.42906586 28.3732605 10.64054871 C28.36130553 6.63370408 28.36130553 6.63370408 26.72871399 3.0650177 C19.52452352 -1.3733049 7.7040042 1 1 1 Z " fill="#4D6D90" transform="translate(385,161)"/>
<path d="M0 0 C4.2498709 -0.08708752 8.49951239 -0.14042181 12.75 -0.1875 C13.9565625 -0.21263672 15.163125 -0.23777344 16.40625 -0.26367188 C17.56640625 -0.27333984 18.7265625 -0.28300781 19.921875 -0.29296875 C21.52434082 -0.31653442 21.52434082 -0.31653442 23.15917969 -0.34057617 C26.38396195 0.04603188 27.71142455 0.72968799 30 3 C31.29030225 6.87090676 31.16391429 10.54432517 31.17700195 14.57958984 C31.18357315 15.45647461 31.19014435 16.33335937 31.19691467 17.23681641 C31.21665387 20.14485767 31.22831656 23.05284707 31.23828125 25.9609375 C31.24235678 26.95695606 31.2464323 27.95297462 31.25063133 28.97917557 C31.27150258 34.25906415 31.28579529 39.53892673 31.29516602 44.81884766 C31.30618505 50.24668448 31.34052962 55.6741062 31.38033772 61.1017971 C31.40662559 65.2954275 31.414869 69.48896126 31.41844749 73.68266678 C31.42328828 75.68153283 31.43482973 77.6803953 31.45348549 79.67918015 C31.55114085 90.84307382 31.32242689 100.53749406 27 111 C26.71967422 111.68237228 26.43934845 112.36474457 26.15052795 113.0677948 C21.38202481 123.70134804 14.63736584 130.47006685 5.125 136.8125 C4.57255615 137.18600586 4.0201123 137.55951172 3.45092773 137.94433594 C-4.70716215 143.12504652 -13.27328229 144.56224886 -22.8125 144.5 C-23.76866211 144.49790527 -24.72482422 144.49581055 -25.70996094 144.49365234 C-33.9780459 144.31050741 -42.87796378 143.12203622 -49 137 C-46.16444628 137.38318294 -43.4421105 137.85792004 -40.71484375 138.734375 C-28.91901082 142.50619488 -12.67488964 143.1314942 -1.28515625 137.70703125 C1.22840857 136.23669032 3.61309436 134.6667186 6 133 C7.05960937 132.32517578 7.05960937 132.32517578 8.140625 131.63671875 C11.71588856 129.40960492 11.71588856 129.40960492 13.68359375 125.8515625 C13.84021484 124.93503906 13.84021484 124.93503906 14 124 C14.66 124 15.32 124 16 124 C16.66 121.69 17.32 119.38 18 117 C18.66 117 19.32 117 20 117 C20 116.34 20 115.68 20 115 C20.66 115 21.32 115 22 115 C22.12375 114.071875 22.2475 113.14375 22.375 112.1875 C23 109 23 109 25 106 C25.70164642 104.01200182 26.37372872 102.01301483 27 100 C27.66 100 28.32 100 29 100 C28.505 52.48 28.505 52.48 28 4 C19.90061731 -0.04969135 10.04683829 1.3933408 1 1 C0.67 31.36 0.34 61.72 0 93 C-0.99 93.495 -0.99 93.495 -2 94 C-1.89262145 82.03917264 -1.78001329 70.07840718 -1.66066074 58.11769295 C-1.60541104 52.5643223 -1.55198777 47.01094641 -1.50268555 41.45751953 C-1.4550722 36.10179826 -1.4027305 30.74614247 -1.34705925 25.39049911 C-1.32662195 23.34351092 -1.30791118 21.29650476 -1.29092598 19.24948502 C-1.2669124 16.39037813 -1.23685371 13.53139572 -1.20532227 10.67236328 C-1.1995668 9.81928589 -1.19381134 8.9662085 -1.18788147 8.08728027 C-1.11405216 2.22810432 -1.11405216 2.22810432 0 0 Z " fill="#5DBDC5" transform="translate(266,160)"/>
<path d="M0 0 C3.72901814 -0.08736736 7.45777165 -0.14051482 11.1875 -0.1875 C12.24259766 -0.21263672 13.29769531 -0.23777344 14.38476562 -0.26367188 C15.91713867 -0.27817383 15.91713867 -0.27817383 17.48046875 -0.29296875 C18.41785889 -0.3086792 19.35524902 -0.32438965 20.32104492 -0.34057617 C23.78199528 0.09941524 25.34013113 0.69648967 28 3 C28.75680107 6.03747619 28.63076617 9.03803123 28.56762695 12.15307617 C28.56835709 13.08985703 28.56908722 14.02663788 28.56983948 14.99180603 C28.56635189 18.09277963 28.5274348 21.1922571 28.48828125 24.29296875 C28.47895731 26.44101643 28.47183922 28.58907473 28.46684265 30.73713684 C28.44774003 36.39437144 28.39861049 42.05096549 28.34332275 47.70794678 C28.29220098 53.47903782 28.2693437 59.25023224 28.24414062 65.02148438 C28.19049542 76.34793789 28.10514268 87.67391571 28 99 C26.02 99.495 26.02 99.495 24 100 C24.33 98.35 24.66 96.7 25 95 C25.66 95 26.32 95 27 95 C27 64.97 27 34.94 27 4 C23.83261742 3.20815435 21.69245457 2.87187639 18.5234375 2.8671875 C17.688125 2.86589844 16.8528125 2.86460937 15.9921875 2.86328125 C15.12851562 2.86714844 14.26484375 2.87101563 13.375 2.875 C12.06789063 2.86919922 12.06789063 2.86919922 10.734375 2.86328125 C9.90164063 2.86457031 9.06890625 2.86585938 8.2109375 2.8671875 C7.45087402 2.86831543 6.69081055 2.86944336 5.90771484 2.87060547 C3.91321505 2.8827003 3.91321505 2.8827003 2 4 C0.68171835 8.35408164 0.86851004 12.8288577 0.88989258 17.33520508 C0.8893501 19.0479177 0.88876312 20.7606303 0.88813782 22.4733429 C0.88956598 23.37676233 0.89099415 24.28018177 0.89246559 25.21097755 C0.89599798 30.0137549 0.87017266 34.81641695 0.84960938 39.61914062 C0.82528827 45.72218644 0.80957354 51.82489099 0.82495117 57.92797852 C0.8366328 62.86831791 0.81916486 67.80781427 0.78250694 72.74802208 C0.77391136 74.62537512 0.77594149 76.50280926 0.789011 78.38013649 C0.90326144 96.11614377 0.90326144 96.11614377 -4.43379211 101.73735046 C-6.51961086 103.41890123 -8.57277945 104.85777857 -11 106 C-11 105.34 -11 104.68 -11 104 C-10.2575 103.46375 -9.515 102.9275 -8.75 102.375 C-4.8343591 98.99331013 -2.51424698 94.99230565 -1.62865639 89.83922195 C-1.479458 87.50498827 -1.45090096 85.20071762 -1.4699707 82.86181641 C-1.46123932 81.98603943 -1.45250793 81.11026245 -1.44351196 80.20794678 C-1.41928839 77.33893892 -1.4225362 74.47065902 -1.42578125 71.6015625 C-1.41332868 69.59995301 -1.3989924 67.59835444 -1.38285828 65.59677124 C-1.34492793 60.34671756 -1.32965918 55.09685238 -1.32006836 49.84667969 C-1.30027845 41.42256381 -1.24356922 32.99859079 -1.19130516 24.57462692 C-1.17593414 21.63084408 -1.16876497 18.68713259 -1.16316223 15.74331665 C-1.15614941 13.94948287 -1.14904876 12.15564943 -1.1418457 10.36181641 C-1.14237442 9.54000885 -1.14290314 8.71820129 -1.14344788 7.87149048 C-1.11321736 2.22643471 -1.11321736 2.22643471 0 0 Z " fill="#19959F" transform="translate(267,161)"/>
<path d="M0 0 C1.12148438 0.00322266 2.24296875 0.00644531 3.3984375 0.00976562 C4.5740625 0.01814453 5.7496875 0.02652344 6.9609375 0.03515625 C8.14429688 0.03966797 9.32765625 0.04417969 10.546875 0.04882812 C13.47661257 0.06064158 16.40625022 0.07711367 19.3359375 0.09765625 C19.3359375 0.42765625 19.3359375 0.75765625 19.3359375 1.09765625 C18.66014648 1.10176514 17.98435547 1.10587402 17.28808594 1.11010742 C14.2198195 1.1430457 11.15353824 1.21368885 8.0859375 1.28515625 C6.49072266 1.29385742 6.49072266 1.29385742 4.86328125 1.30273438 C3.32607422 1.34624023 3.32607422 1.34624023 1.7578125 1.390625 C0.81518555 1.40633545 -0.12744141 1.4220459 -1.09863281 1.43823242 C-4.79120591 2.38737973 -5.6648281 3.87376259 -7.6640625 7.09765625 C-8.236454 10.07890544 -8.20085854 13.00290843 -8.16577148 16.03125 C-8.17117447 16.92127716 -8.17657745 17.81130432 -8.18214417 18.728302 C-8.19463034 21.6642605 -8.17814108 24.59923818 -8.16015625 27.53515625 C-8.16031124 29.57869518 -8.16180023 31.62223442 -8.16456604 33.66577148 C-8.16594999 37.94625867 -8.15339251 42.22641078 -8.13061523 46.50683594 C-8.10223081 51.99143873 -8.10496808 57.47548479 -8.11770535 62.96012878 C-8.12466296 67.17920683 -8.11687226 71.39815638 -8.10444832 75.61721802 C-8.09993463 77.63940946 -8.09959629 79.66161469 -8.10351372 81.68380737 C-8.1064267 84.51084634 -8.08991458 87.33712024 -8.06811523 90.1640625 C-8.07261688 90.99849884 -8.07711853 91.83293518 -8.08175659 92.69265747 C-8.02131932 97.41401569 -7.46920818 100.14142902 -4.6640625 104.09765625 C-4.01801425 106.51435527 -3.45833238 108.95542403 -2.9765625 111.41015625 C-2.59951172 113.29154297 -2.59951172 113.29154297 -2.21484375 115.2109375 C-2.03308594 116.16355469 -1.85132813 117.11617188 -1.6640625 118.09765625 C-9.34328331 111.35919468 -9.87261975 98.68449981 -10.6640625 89.09765625 C-10.9974441 82.79003096 -10.97069054 76.47472935 -10.96484375 70.16015625 C-10.9687423 68.38232322 -10.97307931 66.60449111 -10.97782898 64.82666016 C-10.98522579 61.1322932 -10.98504484 57.43802198 -10.97973633 53.74365234 C-10.97390377 49.02183739 -10.99099497 44.30040989 -11.014081 39.57865906 C-11.02882907 35.9205702 -11.02968937 32.26257499 -11.02657127 28.60446167 C-11.02708241 26.86301904 -11.03228101 25.12157088 -11.04238319 23.38015747 C-11.05477247 20.94979565 -11.04794511 18.52019411 -11.03637695 16.08984375 C-11.04402069 15.38116653 -11.05166443 14.67248932 -11.05953979 13.94233704 C-11.00674078 8.90285458 -9.9628805 5.49368497 -7.6640625 1.09765625 C-5.00228029 -0.23323485 -2.97666854 -0.01503368 0 0 Z " fill="#93A6B7" transform="translate(319.6640625,159.90234375)"/>
<path d="M0 0 C0.33 0 0.66 0 1 0 C1.00808685 1.11420319 1.01617371 2.22840637 1.02450562 3.37637329 C1.10202464 13.88193295 1.18977861 24.38736403 1.28752708 34.89275551 C1.33745107 40.29354921 1.38378158 45.69432372 1.421875 51.09521484 C1.45877686 56.30836216 1.50515037 61.5213474 1.55806351 66.73435593 C1.57658137 68.72220387 1.59169894 70.71008652 1.60334396 72.6979866 C1.62025093 75.48453582 1.64929695 78.27071598 1.68115234 81.05712891 C1.68331253 81.87712372 1.68547272 82.69711853 1.68769836 83.54196167 C1.76939473 89.14418803 2.95524966 93.50420751 5.125 98.6875 C6 101 6 101 6 104 C6.66 104 7.32 104 8 104 C10.63365987 108.9221313 12.64475824 113.57903298 14 119 C8.57943967 115.09215418 5.8615182 110.99798655 3 105 C2.53400391 104.09314453 2.53400391 104.09314453 2.05859375 103.16796875 C-3.79169662 90.19558576 -1.15374579 71.70491779 -1.13037109 57.88867188 C-1.12506126 54.16792632 -1.13031557 50.44730415 -1.13671875 46.7265625 C-1.14059597 31.12850928 -0.76346779 15.57936055 0 0 Z " fill="#5CBBC2" transform="translate(192,169)"/>
<path d="M0 0 C2.19516223 1.54978454 4.04212531 3.14517135 6 5 C5.67 5.66 5.34 6.32 5 7 C3.88625 6.2884375 3.88625 6.2884375 2.75 5.5625 C0.38949985 4.22130673 -1.36648477 3.487688 -4 3 C-4.495 1.02 -4.495 1.02 -5 -1 C-14.23993043 -2.57275412 -22.73160904 -3.21094736 -31 2 C-34.10293914 5.07138383 -36.57577814 8.37820091 -39 12 C-39.66 12.928125 -40.32 13.85625 -41 14.8125 C-43.20810357 21.85083013 -43.12893266 30.3232674 -40.1328125 37.14453125 C-37.88996114 40.8181671 -34.98797204 43.92197948 -32 47 C-35 47 -35 47 -36.75390625 45.42578125 C-37.35074219 44.72839844 -37.94757813 44.03101563 -38.5625 43.3125 C-39.16191406 42.62800781 -39.76132813 41.94351563 -40.37890625 41.23828125 C-44.75762245 35.19248755 -45.36645874 27.92683411 -44.82421875 20.63671875 C-43.53163698 13.28597593 -39.67517487 6.15273881 -34.1875 1.0625 C-23.56634861 -5.81000972 -11.08533595 -6.15196835 0 0 Z " fill="#8FD1D7" transform="translate(255,97)"/>
<path d="M0 0 C4.31248609 -0.02886537 8.62494762 -0.04675255 12.9375 -0.0625 C14.16919922 -0.07087891 15.40089844 -0.07925781 16.66992188 -0.08789062 C17.83974609 -0.09111328 19.00957031 -0.09433594 20.21484375 -0.09765625 C21.84087524 -0.10551147 21.84087524 -0.10551147 23.49975586 -0.11352539 C26 0 26 0 27 1 C27.09514592 3.70838086 27.12554932 6.39118513 27.11352539 9.09985352 C27.11367142 9.94856018 27.11381744 10.79726685 27.1139679 11.67169189 C27.11326848 14.49078891 27.10547478 17.30982071 27.09765625 20.12890625 C27.09579217 22.07803817 27.09436822 24.02717055 27.09336853 25.9763031 C27.08954255 31.11706832 27.07971159 36.25780547 27.06866455 41.39855957 C27.05845215 46.64005148 27.05387128 51.8815479 27.04882812 57.12304688 C27.03808939 67.41537694 27.02101201 77.70768614 27 88 C26.67 88 26.34 88 26 88 C25.86761535 79.88776876 25.73711876 71.77551002 25.60884857 63.66321278 C25.54919297 59.89386857 25.48895477 56.1245358 25.42724609 52.35522461 C25.15286103 35.5693702 24.91332943 18.78881112 25 2 C21.04168191 1.97107143 17.08339083 1.95322573 13.125 1.9375 C11.99707031 1.92912109 10.86914062 1.92074219 9.70703125 1.91210938 C8.63066406 1.90888672 7.55429688 1.90566406 6.4453125 1.90234375 C4.95281982 1.89448853 4.95281982 1.89448853 3.43017578 1.88647461 C0.99039227 1.8360585 0.99039227 1.8360585 -1 3 C-0.67 2.01 -0.34 1.02 0 0 Z " fill="#2DB2B9" transform="translate(195,161)"/>
<path d="M0 0 C0.99 -0.02126953 0.99 -0.02126953 2 -0.04296875 C4.34424404 0.22716875 5.95815403 1.03440395 8 2.1875 C7.03320312 2.20167969 6.06640625 2.21585937 5.0703125 2.23046875 C-3.0403623 2.52759248 -10.41742317 2.85027554 -17 8.1875 C-19.29726879 10.99648269 -20.71249411 13.80639758 -22 17.1875 C-22.25523437 17.84234375 -22.51046875 18.4971875 -22.7734375 19.171875 C-25.06921994 26.86423695 -23.66887691 35.31463795 -23 43.1875 C-27.66678888 37.76800324 -28.37000215 33.90710705 -28.27734375 26.90625 C-27.49543731 19.24136433 -23.57323378 11.50096441 -18 6.1875 C-12.40095604 2.6260828 -6.69549204 0.06538566 0 0 Z " fill="#375571" transform="translate(367,92.8125)"/>
<path d="M0 0 C0.33 0 0.66 0 1 0 C1 27.39 1 54.78 1 83 C-8 84.125 -8 84.125 -11.9375 84.09765625 C-12.76894531 84.09443359 -13.60039062 84.09121094 -14.45703125 84.08789062 C-15.71580078 84.07532227 -15.71580078 84.07532227 -17 84.0625 C-17.87011719 84.05798828 -18.74023438 84.05347656 -19.63671875 84.04882812 C-21.75784293 84.0371736 -23.8789311 84.01924357 -26 84 C-25.505 83.01 -25.505 83.01 -25 82 C-23.84242188 81.95101562 -22.68484375 81.90203125 -21.4921875 81.8515625 C-19.9531033 81.77648522 -18.4140419 81.70093957 -16.875 81.625 C-16.11445313 81.5940625 -15.35390625 81.563125 -14.5703125 81.53125 C-7.23040723 81.32460805 -7.23040723 81.32460805 -1 78 C-0.87507611 75.56700213 -0.81398493 73.16095077 -0.79467773 70.72631836 C-0.78477814 69.96539383 -0.77487854 69.2044693 -0.76467896 68.42048645 C-0.73297376 65.8936377 -0.7082711 63.36677012 -0.68359375 60.83984375 C-0.66303199 59.09248859 -0.64203574 57.34513849 -0.62062073 55.59779358 C-0.56531959 50.98973682 -0.51594592 46.38163459 -0.46777344 41.77349854 C-0.41761697 37.07486911 -0.36190042 32.37630606 -0.30664062 27.67773438 C-0.19896076 18.45187956 -0.09753777 9.22596722 0 0 Z " fill="#27486D" transform="translate(412,166)"/>
<path d="M0 0 C0.99 0.495 0.99 0.495 2 1 C-9.43833039 11.79931752 -20.93008043 17.60364189 -36.8125 17.5 C-37.76866211 17.49790527 -38.72482422 17.49581055 -39.70996094 17.49365234 C-47.9780459 17.31050741 -56.87796378 16.12203622 -63 10 C-60.16444628 10.38318294 -57.4421105 10.85792004 -54.71484375 11.734375 C-42.90969794 15.50917276 -26.74136561 16.10308998 -15.3203125 10.7421875 C-9.91580507 7.60461632 -4.90508152 3.86377929 0 0 Z " fill="#A7DBE0" transform="translate(280,287)"/>
<path d="M0 0 C0.33 0 0.66 0 1 0 C1.1392046 11.98737804 1.24572526 23.97456284 1.31087303 35.96258545 C1.3421457 41.52954723 1.3845451 47.09595481 1.45263672 52.66259766 C1.51797297 58.03780542 1.55373661 63.41248112 1.56926346 68.78805542 C1.58032412 70.83576836 1.60192353 72.88345315 1.63438034 74.93093872 C1.67813327 77.80615466 1.68392624 80.67919062 1.68115234 83.5546875 C1.71350983 84.81597221 1.71350983 84.81597221 1.746521 86.10273743 C1.6795813 92.54280171 -0.5316908 96.4065925 -5 101 C-7.875 103 -7.875 103 -10 104 C-10 103.34 -10 102.68 -10 102 C-9.2575 101.46375 -8.515 100.9275 -7.75 100.375 C-3.83108292 96.99048071 -1.5162955 92.98918118 -0.62580109 87.83351135 C-0.4724869 85.49085896 -0.43957249 83.17767966 -0.45410156 80.83007812 C-0.44376389 79.95108856 -0.43342621 79.072099 -0.42277527 78.16647339 C-0.39349548 75.2878753 -0.39185125 72.40998487 -0.390625 69.53125 C-0.37563334 67.52484813 -0.35890413 65.51845857 -0.34051514 63.51208496 C-0.29694025 58.25141818 -0.27686435 52.99091787 -0.26177979 47.73010254 C-0.24217316 42.35382281 -0.20020713 36.97772192 -0.16015625 31.6015625 C-0.08496093 21.06776363 -0.03460479 10.53400499 0 0 Z " fill="#31AFB9" transform="translate(266,163)"/>
<path d="M0 0 C1.67389312 3.34778623 1.09513439 7.11404694 1.0534668 10.79248047 C1.04707184 11.70318298 1.04067688 12.6138855 1.03408813 13.55218506 C1.01123731 16.57392523 0.98064633 19.59552512 0.94921875 22.6171875 C0.92999466 24.71224824 0.9109386 26.80731053 0.89204407 28.90237427 C0.85100977 33.29905556 0.80577989 37.69567162 0.75805664 42.09228516 C0.6974971 47.73041926 0.65057257 53.36857532 0.60722637 59.00686455 C0.57188336 63.33574091 0.5276417 67.66449278 0.48087502 71.99325943 C0.45980938 74.07207434 0.44191311 76.15092383 0.4272213 78.22979355 C0.40567292 81.13629175 0.37175915 84.04239411 0.3347168 86.94873047 C0.32911995 88.24089981 0.32911995 88.24089981 0.32341003 89.55917358 C0.31080139 90.3527124 0.29819275 91.14625122 0.28520203 91.96383667 C0.27837245 92.65074018 0.27154287 93.3376437 0.26450634 94.04536247 C-0.20583048 97.52103719 -1.43759812 99.53684551 -4.125 101.75 C-4.74375 102.1625 -5.3625 102.575 -6 103 C-6.66 102.67 -7.32 102.34 -8 102 C-6.73046875 100.60026042 -5.4609375 99.20052083 -4.19140625 97.80078125 C-1.20709108 93.29006225 -1.83706631 87.39620358 -1.81054688 82.18652344 C-1.80225357 81.30957825 -1.79396027 80.43263306 -1.78541565 79.52911377 C-1.76805858 77.63085451 -1.75288004 75.73257435 -1.73963928 73.83428192 C-1.71857399 70.83430956 -1.69155779 67.83444314 -1.66296387 64.83453369 C-1.59321308 57.38901045 -1.53360459 49.94341245 -1.47393799 42.49780273 C-1.42309725 36.19734313 -1.36832386 29.89694257 -1.30812073 23.59656525 C-1.28146597 20.63338449 -1.26070585 17.67019842 -1.2401123 14.70697021 C-1.22351907 12.9032769 -1.20664811 11.09958611 -1.18945312 9.29589844 C-1.18526871 8.46578247 -1.18108429 7.6356665 -1.17677307 6.78039551 C-1.11385283 1.11385283 -1.11385283 1.11385283 0 0 Z " fill="#7A9AB9" transform="translate(384,162)"/>
<path d="M0 0 C6.28735484 5.58875985 9.90818386 12.53094181 10.4375 21 C10.33192163 28.99756164 5.83470683 36.44372966 0.4375 42.125 C-3.13948932 45.37034792 -6.09734745 47 -11 47 C-11 46.01 -11 45.02 -11 44 C-7.535 43.505 -7.535 43.505 -4 43 C-4 42.34 -4 41.68 -4 41 C-3.360625 40.773125 -2.72125 40.54625 -2.0625 40.3125 C0.27193661 39.14749104 0.27193661 39.14749104 0.75 36.375 C0.87375 35.199375 0.87375 35.199375 1 34 C2.485 33.505 2.485 33.505 4 33 C7.59626136 28.20498486 7.60543794 23.04103605 7.5 17.26171875 C6.83696515 12.93645236 5.16310478 10.33217411 2.41015625 7 C0.77131913 4.67566592 0.38305169 2.79288323 0 0 Z " fill="#839AAC" transform="translate(386,101)"/>
<path d="M0 0 C1.32 0.33 2.64 0.66 4 1 C4 3.31 4 5.62 4 8 C3.01 8 2.02 8 1 8 C1.33 36.38 1.66 64.76 2 94 C-0.24536122 89.50927756 -0.26940694 86.15673995 -0.22705078 81.28417969 C-0.22734283 80.40577423 -0.22763489 79.52736877 -0.22793579 78.62234497 C-0.22654367 75.72208745 -0.21098794 72.82208758 -0.1953125 69.921875 C-0.19158195 67.90977112 -0.18873518 65.89766543 -0.18673706 63.88555908 C-0.1791039 58.59190854 -0.15945807 53.29836789 -0.1373291 48.00476074 C-0.11686389 42.60214728 -0.10773389 37.19951605 -0.09765625 31.796875 C-0.07621193 21.19786841 -0.04207975 10.59894334 0 0 Z " fill="#52C6D0" transform="translate(222,162)"/>
<path d="M0 0 C0.33 0 0.66 0 1 0 C1.01458252 1.21582764 1.02916504 2.43165527 1.04418945 3.68432617 C1.10225098 8.20399078 1.1794836 12.72316127 1.26245117 17.24243164 C1.29566354 19.19677702 1.32370695 21.15121747 1.34643555 23.10571289 C1.38004933 25.91854282 1.43236854 28.73050447 1.48828125 31.54296875 C1.49467117 32.41398727 1.5010611 33.2850058 1.50764465 34.18241882 C1.62459111 39.02988077 2.09771027 41.95089758 5 46 C5.64604825 48.41669902 6.20573012 50.85776778 6.6875 53.3125 C7.06455078 55.19388672 7.06455078 55.19388672 7.44921875 57.11328125 C7.63097656 58.06589844 7.81273437 59.01851563 8 60 C5.10237995 57.54116242 4.1023505 55.12374927 2.875 51.5625 C2.54242188 50.61503906 2.20984375 49.66757812 1.8671875 48.69140625 C0.65061257 44.9156399 -0.12551257 41.67017357 -0.11352539 37.69042969 C-0.11344986 36.84986023 -0.11337433 36.00929077 -0.11329651 35.14324951 C-0.10813522 34.24519592 -0.10297394 33.34714233 -0.09765625 32.421875 C-0.0962413 31.4953009 -0.09482635 30.56872681 -0.09336853 29.61407471 C-0.08777824 26.65935008 -0.0752275 23.70470167 -0.0625 20.75 C-0.05748375 18.74479276 -0.05292106 16.73958433 -0.04882812 14.734375 C-0.03781199 9.82288737 -0.020554 4.9114566 0 0 Z " fill="#768FA4" transform="translate(310,218)"/>
<path d="M0 0 C3.78075988 0.59518223 6.69010612 1.70694977 10.0625 3.5 C14.94891539 6.09002603 18.63541362 7.12585411 24.17578125 7.1328125 C25.66561523 7.13474609 25.66561523 7.13474609 27.18554688 7.13671875 C28.21744141 7.13285156 29.24933594 7.12898438 30.3125 7.125 C31.33279297 7.12886719 32.35308594 7.13273437 33.40429688 7.13671875 C38.71079226 7.12985838 43.7729058 6.92893352 49 6 C44.42149125 10.57850875 36.25449635 10.16979554 30.125 10.3125 C18.63634942 10.10089972 9.76276495 6.93837474 0 1 C0 0.67 0 0.34 0 0 Z " fill="#8FA3B4" transform="translate(333,294)"/>
<path d="M0 0 C5.37118909 4.63033542 7.58319473 10.61253767 8.11328125 17.55078125 C7.70542146 26.36899125 3.15696981 32.66235666 -2.5859375 39.00390625 C-5.29182254 41.24129663 -7.62994262 42.10164176 -11 43 C-9.16242952 41.06034228 -7.33200732 39.49529442 -5.1875 37.875 C0.49263887 33.20308578 4.40444378 27.00267226 5.2734375 19.703125 C5.51632151 13.83654198 4.6815331 10.47311266 1.09375 5.7890625 C0 4 0 4 0 0 Z " fill="#9FD6DC" transform="translate(261,104)"/>
<path d="M0 0 C2.19516223 1.54978454 4.04212531 3.14517135 6 5 C5.67 5.66 5.34 6.32 5 7 C3.88625 6.2884375 3.88625 6.2884375 2.75 5.5625 C0.38949985 4.22130673 -1.36648477 3.487688 -4 3 C-4.495 1.02 -4.495 1.02 -5 -1 C-16.48291713 -2.95453909 -25.34087103 -2.17384933 -35.125 4.75 C-36.07375 5.4925 -37.0225 6.235 -38 7 C-36.24259936 2.52661656 -33.39518011 0.15341665 -29.09375 -1.91796875 C-19.24343591 -5.71890516 -9.22268718 -5.11826434 0 0 Z " fill="#A4DCE1" transform="translate(255,97)"/>
<path d="M0 0 C3.72901814 -0.08736736 7.45777165 -0.14051482 11.1875 -0.1875 C12.24259766 -0.21263672 13.29769531 -0.23777344 14.38476562 -0.26367188 C15.91713867 -0.27817383 15.91713867 -0.27817383 17.48046875 -0.29296875 C18.41785889 -0.3086792 19.35524902 -0.32438965 20.32104492 -0.34057617 C23.49326811 0.06270929 25.38735754 1.20367882 28 3 C27.67 3.66 27.34 4.32 27 5 C26.4323291 4.67475342 25.8646582 4.34950684 25.27978516 4.0144043 C22.8063335 2.91382691 21.21216374 2.75503907 18.5234375 2.76953125 C17.688125 2.77146484 16.8528125 2.77339844 15.9921875 2.77539062 C15.12851562 2.78763672 14.26484375 2.79988281 13.375 2.8125 C12.50359375 2.81314453 11.6321875 2.81378906 10.734375 2.81445312 C6.21451153 2.6973661 6.21451153 2.6973661 2 4 C1.34444881 6.52733235 1.34444881 6.52733235 1 9 C0.67 9 0.34 9 0 9 C0 6.03 0 3.06 0 0 Z " fill="#25A1AA" transform="translate(267,161)"/>
<path d="M0 0 C1.875 0.6875 1.875 0.6875 4 2 C5 4.1875 5 4.1875 6 7 C6.70125 8.051875 7.4025 9.10375 8.125 10.1875 C10.72599512 14.6324842 10.57612456 18.98771637 10 24 C9 27.625 9 27.625 8 30 C7.67 30 7.34 30 7 30 C7.05220703 28.37191406 7.05220703 28.37191406 7.10546875 26.7109375 C7.13362388 25.26564058 7.16092219 23.82032679 7.1875 22.375 C7.21263672 21.66214844 7.23777344 20.94929688 7.26367188 20.21484375 C7.33024446 15.37723584 6.55559453 12.25261662 4 8 C3.34 8 2.68 8 2 8 C0.74335022 5.09399739 0 3.20395416 0 0 Z " fill="#4AB0B7" transform="translate(257,102)"/>
<path d="M0 0 C0.66 0 1.32 0 2 0 C3.56598818 1.71363849 4.94928042 3.53375343 6.3671875 5.37109375 C8.22309468 7.22256096 9.44429941 7.60724082 12 8 C12 8.66 12 9.32 12 10 C21.9 9.505 21.9 9.505 32 9 C31.67 9.66 31.34 10.32 31 11 C23.88231616 13.37256128 13.97657868 12.90938175 7 10 C4.625 7.5625 4.625 7.5625 3 5 C2.4225 4.443125 1.845 3.88625 1.25 3.3125 C0 2 0 2 0 0 Z " fill="#42BBC6" transform="translate(224,258)"/>
<path d="M0 0 C0.66 0 1.32 0 2 0 C2 1.65 2 3.3 2 5 C-4.04819812 5.88902912 -9.89223486 6.12348383 -16 6.0625 C-16.87011719 6.05798828 -17.74023438 6.05347656 -18.63671875 6.04882812 C-20.75784293 6.0371736 -22.8789311 6.01924357 -25 6 C-24.67 5.34 -24.34 4.68 -24 4 C-22.84242188 3.95101562 -21.68484375 3.90203125 -20.4921875 3.8515625 C-18.9531033 3.77648522 -17.4140419 3.70093957 -15.875 3.625 C-14.73417969 3.57859375 -14.73417969 3.57859375 -13.5703125 3.53125 C-6.23040723 3.32460805 -6.23040723 3.32460805 0 0 Z " fill="#32557B" transform="translate(411,244)"/>
<path d="M0 0 C0.99 -0.02126953 0.99 -0.02126953 2 -0.04296875 C4.34424404 0.22716875 5.95815403 1.03440395 8 2.1875 C7.03320312 2.20167969 6.06640625 2.21585937 5.0703125 2.23046875 C-3.06794848 2.52860306 -10.33047719 2.93191603 -17 8.1875 C-18.69697566 10.44695636 -19.76583904 12.6204452 -21 15.1875 C-21.99 15.5175 -22.98 15.8475 -24 16.1875 C-22.29402876 10.91449798 -19.6711897 6.69481419 -14.8125 3.953125 C-9.94407553 1.74311652 -5.38958307 0.05263265 0 0 Z " fill="#8395AA" transform="translate(367,92.8125)"/>
<path d="M0 0 C2.77321347 0.37475858 5.43022864 0.79827304 8.07421875 1.734375 C18.06435777 5.14485724 28.58550756 4.26873442 39 4 C34.32324756 7.11783496 29.50335112 6.40893589 24 6.4375 C22.91332031 6.47037109 21.82664063 6.50324219 20.70703125 6.53710938 C12.72879128 6.58953509 6.96815692 4.85500364 0 1 C0 0.67 0 0.34 0 0 Z " fill="#75C3CA" transform="translate(217,297)"/>
<path d="M0 0 C-2.38439399 2.63538283 -4.94911572 4.20302475 -8 6 C-8.825 6.51820313 -9.65 7.03640625 -10.5 7.5703125 C-11.325 8.08335937 -12.15 8.59640625 -13 9.125 C-13.825 9.64320313 -14.65 10.16140625 -15.5 10.6953125 C-18.03800099 12.01983177 -20.18115852 12.58724107 -23 13 C-22.67 12.34 -22.34 11.68 -22 11 C-19.4375 10.375 -19.4375 10.375 -17 10 C-17 9.34 -17 8.68 -17 8 C-16.01 8 -15.02 8 -14 8 C-14 7.34 -14 6.68 -14 6 C-13.38125 5.7525 -12.7625 5.505 -12.125 5.25 C-9.83862528 4.18894087 -9.83862528 4.18894087 -9.125 1.9375 C-8 0 -8 0 -5 -0.8125 C-2 -1 -2 -1 0 0 Z " fill="#2BACB4" transform="translate(280,288)"/>
<path d="M0 0 C0.99 0.33 1.98 0.66 3 1 C-2.71185641 7.41365447 -10.28932607 14.40882303 -19 16 C-17.625 14.5 -17.625 14.5 -16 13 C-15.34 13 -14.68 13 -14 13 C-14 12.34 -14 11.68 -14 11 C-13.01 11 -12.02 11 -11 11 C-10.34 9.68 -9.68 8.36 -9 7 C-8.01 7 -7.02 7 -6 7 C-6 6.01 -6 5.02 -6 4 C-5.195625 3.71125 -4.39125 3.4225 -3.5625 3.125 C-0.8673532 2.26737432 -0.8673532 2.26737432 0 0 Z " fill="#8FA4B9" transform="translate(401,284)"/>
<path d="M0 0 C0.75732422 0.00966797 1.51464844 0.01933594 2.29492188 0.02929688 C3.08060547 0.05443359 3.86628906 0.07957031 4.67578125 0.10546875 C5.87170898 0.12577148 5.87170898 0.12577148 7.09179688 0.14648438 C9.05758092 0.18179786 11.02301707 0.23560428 12.98828125 0.29296875 C9.51164745 2.43633036 6.7759893 2.50574501 2.73828125 2.41796875 C1.660625 2.39992187 0.58296875 2.381875 -0.52734375 2.36328125 C-1.3471875 2.34007812 -2.16703125 2.316875 -3.01171875 2.29296875 C-3.34171875 3.28296875 -3.67171875 4.27296875 -4.01171875 5.29296875 C-4.34171875 5.29296875 -4.67171875 5.29296875 -5.01171875 5.29296875 C-5.34171875 10.57296875 -5.67171875 15.85296875 -6.01171875 21.29296875 C-6.34171875 21.29296875 -6.67171875 21.29296875 -7.01171875 21.29296875 C-7.09258251 18.35491879 -7.15214705 15.419088 -7.19921875 12.48046875 C-7.22435547 11.64708984 -7.24949219 10.81371094 -7.27539062 9.95507812 C-7.28505859 9.15263672 -7.29472656 8.35019531 -7.3046875 7.5234375 C-7.32039795 6.78504639 -7.3361084 6.04665527 -7.35229492 5.28588867 C-6.62413821 1.02499744 -4.02904695 -0.09088076 0 0 Z " fill="#15A0AB" transform="translate(200.01171875,161.70703125)"/>
<path d="M0 0 C0.66 0 1.32 0 2 0 C2.268125 0.639375 2.53625 1.27875 2.8125 1.9375 C3.88667752 4.33131686 3.88667752 4.33131686 7 5 C7 5.99 7 6.98 7 8 C8.32 8 9.64 8 11 8 C12.32 10.31 13.64 12.62 15 15 C11.31318144 15 10.40593354 13.79578818 7.875 11.28515625 C7.38 10.77855469 6.885 10.27195312 6.375 9.75 C5.87226563 9.25886719 5.36953125 8.76773437 4.8515625 8.26171875 C2.28793868 5.67742055 0.37142744 3.71427441 0 0 Z " fill="#6F879B" transform="translate(318,278)"/>
<path d="M0 0 C0.99 0 1.98 0 3 0 C2.73073892 4.57743842 0.83120424 6.71246775 -2.37890625 9.70703125 C-5.49208991 12.19007653 -8.06162886 13 -12 13 C-12 12.01 -12 11.02 -12 10 C-8.535 9.505 -8.535 9.505 -5 9 C-5 8.34 -5 7.68 -5 7 C-4.0409375 6.6596875 -4.0409375 6.6596875 -3.0625 6.3125 C-0.72806339 5.14749104 -0.72806339 5.14749104 -0.25 2.375 C-0.1675 1.59125 -0.085 0.8075 0 0 Z " fill="#5E7690" transform="translate(387,135)"/>
<path d="M0 0 C1.19234985 2.87689064 1.02291478 3.93988906 -0.109375 6.91015625 C-0.65078125 7.95042969 -1.1921875 8.99070312 -1.75 10.0625 C-2.28109375 11.10535156 -2.8121875 12.14820313 -3.359375 13.22265625 C-4.7508773 15.57827085 -5.95623894 17.22094293 -8 19 C-8.66131596 13.7094723 -7.04553852 10.84303382 -4.2890625 6.5390625 C-3.65097656 5.77722656 -3.65097656 5.77722656 -3 5 C-2.34 5 -1.68 5 -1 5 C-0.67 3.35 -0.34 1.7 0 0 Z " fill="#89A0B4" transform="translate(412,265)"/>
<path d="M0 0 C1.11503906 0.01289063 2.23007812 0.02578125 3.37890625 0.0390625 C5.11720703 0.08933594 5.11720703 0.08933594 6.890625 0.140625 C8.65212891 0.16769531 8.65212891 0.16769531 10.44921875 0.1953125 C13.3471784 0.2424338 16.24348918 0.30821195 19.140625 0.390625 C19.140625 0.720625 19.140625 1.050625 19.140625 1.390625 C18.4700708 1.38949707 17.7995166 1.38836914 17.10864258 1.38720703 C14.05579212 1.3993498 11.00542273 1.4570326 7.953125 1.515625 C6.89802734 1.51304687 5.84292969 1.51046875 4.75585938 1.5078125 C-0.82435918 1.49484104 -0.82435918 1.49484104 -5.71337891 3.78417969 C-7.27884593 5.57545241 -7.27884593 5.57545241 -8.859375 8.390625 C-9.609375 6.640625 -9.609375 6.640625 -9.859375 4.390625 C-6.87310652 0.48522742 -4.82551503 -0.0984799 0 0 Z " fill="#93A8B7" transform="translate(319.859375,159.609375)"/>
<path d="M0 0 C3.73259366 0.59215835 6.60825454 1.6650581 9.9375 3.4375 C13.56210489 5.31210881 17.06563267 6.86110419 21 8 C18.23547417 9.08724757 17.04676607 9.01466666 14.16015625 8.109375 C13.13792969 7.66078125 12.11570312 7.2121875 11.0625 6.75 C10.04285156 6.31171875 9.02320313 5.8734375 7.97265625 5.421875 C5.19140903 4.09155439 2.57800094 2.6901811 0 1 C0 0.67 0 0.34 0 0 Z " fill="#839BAC" transform="translate(333,294)"/>
<path d="M0 0 C0.33 0 0.66 0 1 0 C1.04898437 1.13179688 1.09796875 2.26359375 1.1484375 3.4296875 C1.22346514 4.91148339 1.29901297 6.393253 1.375 7.875 C1.4059375 8.62136719 1.436875 9.36773437 1.46875 10.13671875 C1.55643831 14.53473188 1.55643831 14.53473188 4 18 C3.625 20.125 3.625 20.125 3 22 C-0.10017586 17.14755082 -1.14229909 13.67214825 -1.125 7.9375 C-1.12757813 7.08027344 -1.13015625 6.22304687 -1.1328125 5.33984375 C-1 3 -1 3 0 0 Z " fill="#8FA4B4" transform="translate(340,114)"/>
<path d="M0 0 C0 0.33 0 0.66 0 1 C-2.76989964 1.67076489 -5.54079742 2.33676317 -8.3125 3 C-9.09818359 3.19078125 -9.88386719 3.3815625 -10.69335938 3.578125 C-11.8293457 3.84882812 -11.8293457 3.84882812 -12.98828125 4.125 C-13.68477783 4.29257813 -14.38127441 4.46015625 -15.09887695 4.6328125 C-17 5 -17 5 -20 5 C-13.30896257 0.67050519 -7.81362222 -0.31254489 0 0 Z " fill="#47ADB6" transform="translate(243,94)"/>
<path d="M0 0 C2.875 2.5625 2.875 2.5625 5 5 C2.69 4.67 0.38 4.34 -2 4 C-2 3.34 -2 2.68 -2 2 C-3.65 2 -5.3 2 -7 2 C-7.33 1.34 -7.66 0.68 -8 0 C-4.99054157 -1.50472922 -3.20590237 -0.88005163 0 0 Z " fill="#6A7F98" transform="translate(381,96)"/>
<path d="M0 0 C0 0.99 0 1.98 0 3 C-5.87883349 5.61281488 -11.70731728 5.18328202 -18 5 C-18 4.67 -18 4.34 -18 4 C-11.565 3.505 -11.565 3.505 -5 3 C-5 2.34 -5 1.68 -5 1 C-2 0 -2 0 0 0 Z " fill="#6686A9" transform="translate(376,265)"/>
<path d="M0 0 C0.495 0.165 0.99 0.33 1.5 0.5 C1.5 1.16 1.5 1.82 1.5 2.5 C-3.45 2.17 -8.4 1.84 -13.5 1.5 C-9.22141938 -1.35238708 -4.89339641 -0.97867928 0 0 Z " fill="#23A2AE" transform="translate(248.5,95.5)"/>
<path d="M0 0 C0.66 0.33 1.32 0.66 2 1 C0.73113036 2.12721436 -0.54017562 3.25168658 -1.8125 4.375 C-2.52019531 5.00148438 -3.22789062 5.62796875 -3.95703125 6.2734375 C-6 8 -6 8 -9 10 C-11.1875 9.625 -11.1875 9.625 -13 9 C-12.13375 8.4225 -11.2675 7.845 -10.375 7.25 C-9.83230469 6.88777344 -9.28960937 6.52554687 -8.73046875 6.15234375 C-7.05229427 5.0348235 -5.36995969 3.92355829 -3.6875 2.8125 C-1.18660918 1.2502324 -1.18660918 1.2502324 0 0 Z " fill="#7FD3D9" transform="translate(280,287)"/>
<path d="M0 0 C3.88975419 3.59054233 6.89732195 7.73898882 10 12 C9.67 12.66 9.34 13.32 9 14 C7.87278564 12.73113036 6.74831342 11.45982438 5.625 10.1875 C4.99851563 9.47980469 4.37203125 8.77210938 3.7265625 8.04296875 C0 3.63348416 0 3.63348416 0 0 Z " fill="#96D8DF" transform="translate(196,274)"/>
<path d="M0 0 C2.78213423 1.02011588 3.81038313 1.63074609 5.1875 4.3125 C5.95949101 6.86600874 6.54944539 9.37176476 7 12 C3.72809082 10.36404541 2.46115697 7.21454534 1 4 C0.63215869 2.6757713 0.28797019 1.34386088 0 0 Z " fill="#2AA9B2" transform="translate(257,102)"/>
<path d="M0 0 C-2.54456151 2.96865509 -5.48994665 4.3619751 -9 6 C-9 4.35 -9 2.7 -9 1 C-2.25 -1.125 -2.25 -1.125 0 0 Z " fill="#20AEB9" transform="translate(280,288)"/>
<path d="M0 0 C0 0.66 0 1.32 0 2 C-0.5775 2.185625 -1.155 2.37125 -1.75 2.5625 C-4.18909751 4.1208123 -4.73739331 5.06577388 -6.0625 7.5625 C-8 11 -8 11 -11 12 C-9.50948318 7.39294801 -7.21457741 4.53603516 -4 1 C-2 0 -2 0 0 0 Z " fill="#A2B0C0" transform="translate(354,97)"/>
<path d="M0 0 C6.6 0 13.2 0 20 0 C20 0.33 20 0.66 20 1 C18.80761719 1.04898438 17.61523438 1.09796875 16.38671875 1.1484375 C14.82028932 1.22347604 13.25388421 1.2990234 11.6875 1.375 C10.90181641 1.4059375 10.11613281 1.436875 9.30664062 1.46875 C8.1706543 1.52675781 8.1706543 1.52675781 7.01171875 1.5859375 C6.31522217 1.6173584 5.61872559 1.6487793 4.90112305 1.68115234 C2.67467261 1.92118253 2.67467261 1.92118253 0 4 C0 2.68 0 1.36 0 0 Z " fill="#254768" transform="translate(386,162)"/>
<path d="M0 0 C5.66710699 1.31793186 7.66437233 3.48709197 11 8 C8 8 8 8 6 7 C6 6.34 6 5.68 6 5 C5.38125 4.731875 4.7625 4.46375 4.125 4.1875 C2 3 2 3 0 0 Z " fill="#82CCD5" transform="translate(206,288)"/>
<path d="M0 0 C2 0 2 0 4.5625 2.1875 C7.01134483 5.01309018 7.68762137 6.35558268 8 10 C6.33333333 8.33333333 4.66666667 6.66666667 3 5 C2.401875 4.443125 1.80375 3.88625 1.1875 3.3125 C0 2 0 2 0 0 Z " fill="#2F5276" transform="translate(360,272)"/>
<path d="M0 0 C3.96 1.98 3.96 1.98 8 4 C8 4.66 8 5.32 8 6 C8.66 6 9.32 6 10 6 C10 6.66 10 7.32 10 8 C5.60316512 6.80086322 2.90159066 5.5711885 0 2 C0 1.34 0 0.68 0 0 Z " fill="#7C92A8" transform="translate(346,139)"/>
<path d="M0 0 C2.33333823 2.12121657 3.9148886 4.01594365 5 7 C4.625 9.25 4.625 9.25 4 11 C0 4.5 0 4.5 0 0 Z " fill="#32A2AA" transform="translate(213,128)"/>
<path d="M0 0 C0.8531488 2.38881665 1.12563748 3.62308755 0.3125 6.0625 C-1.18464888 8.27257692 -2.79042813 9.52695209 -5 11 C-5.66 10.67 -6.32 10.34 -7 10 C-6.57847656 9.44570313 -6.15695312 8.89140625 -5.72265625 8.3203125 C-5.17480469 7.59585937 -4.62695312 6.87140625 -4.0625 6.125 C-3.51722656 5.40570313 -2.97195313 4.68640625 -2.41015625 3.9453125 C-0.96035376 2.05642921 -0.96035376 2.05642921 0 0 Z " fill="#6684A8" transform="translate(383,254)"/>
<path d="M0 0 C0.99 0 1.98 0 3 0 C2.875 1.8125 2.875 1.8125 2 4 C-1.0625 5.75 -1.0625 5.75 -4 7 C-2.79618552 4.50638429 -1.54571278 2.31856917 0 0 Z " fill="#2197A1" transform="translate(254,139)"/>
<path d="M0 0 C0.33 0 0.66 0 1 0 C1 3.96 1 7.92 1 12 C-0.32 12.33 -1.64 12.66 -3 13 C-2.67 11.35 -2.34 9.7 -2 8 C-1.34 8 -0.68 8 0 8 C0 5.36 0 2.72 0 0 Z " fill="#1AA8B0" transform="translate(294,248)"/>
<path d="M0 0 C1.46366342 0.39753821 2.9208935 0.81881384 4.375 1.25 C5.18710938 1.48203125 5.99921875 1.7140625 6.8359375 1.953125 C9.45785454 3.2214892 9.99382318 4.32423308 11 7 C9.34912153 6.40975852 7.70437593 5.80233994 6.0625 5.1875 C5.14597656 4.85105469 4.22945312 4.51460938 3.28515625 4.16796875 C1 3 1 3 0 0 Z " fill="#80CBD0" transform="translate(250,97)"/>
<path d="M0 0 C2.0343459 1.41519715 2.90410393 2.54982123 3.421875 4.98046875 C3.66273952 6.98176954 3.83532741 8.9909944 4 11 C2 10 2 10 0.875 7.1875 C0 4 0 4 0 0 Z " fill="#33ADB6" transform="translate(194,264)"/>
<path d="M0 0 C1.43088528 2.86177057 0.59991697 4.93375773 0 8 C-0.99 8.33 -1.98 8.66 -3 9 C-3.36923077 3.46153846 -3.36923077 3.46153846 -1.5 1.125 C-1.005 0.75375 -0.51 0.3825 0 0 Z " fill="#5F778F" transform="translate(344,108)"/>
<path d="M0 0 C3.67230705 3.07999946 4.56802365 5.2482602 5 10 C2.08772731 6.71195019 0.50298788 4.40114397 0 0 Z " fill="#87D2D4" transform="translate(261,104)"/>
<path d="M0 0 C0.88336837 2.4667645 1.1312406 3.63859372 0.22265625 6.140625 C-0.16019531 6.83671875 -0.54304688 7.5328125 -0.9375 8.25 C-1.31777344 8.95640625 -1.69804687 9.6628125 -2.08984375 10.390625 C-2.39019531 10.92171875 -2.69054687 11.4528125 -3 12 C-4.41573582 7.75279253 -2.76329613 5.5689976 -0.875 1.6875 C-0.58625 1.130625 -0.2975 0.57375 0 0 Z " fill="#7ACCD4" transform="translate(293,265)"/>
<path d="M0 0 C0.33 0.66 0.66 1.32 1 2 C-2.625 7.75 -2.625 7.75 -6 10 C-4.6302836 6.00499382 -2.74277578 3.19990508 0 0 Z " fill="#8FD9DD" transform="translate(288,277)"/>
<path d="M0 0 C1.32 0.33 2.64 0.66 4 1 C2.35 2.98 0.7 4.96 -1 7 C-1.625 5.1875 -1.625 5.1875 -2 3 C-1.34 2.01 -0.68 1.02 0 0 Z " fill="#899EB2" transform="translate(312,161)"/>
</svg>
